<svg xmlns="http://www.w3.org/2000/svg" viewBox="0 0 1600 1600" role="img" aria-label="Layered SVG from image" width="2048" height="2048"><g id="layer-1-b62424" data-layer-id="layer-1-b62424" data-layer-label="Layer 1" data-layer-color="#b62424" fill="#b62424"><path d="M829 249c-1 0-9 3-16 5-7 3-14 5-14 5-1 0-2 0-2 0 0 0-1 0-2 0-1 1-8 3-16 5l-13 5-5 7c-2 4-8 11-12 18-4 6-9 13-11 16-2 3-4 7-6 9-1 1-3 4-4 6-1 2-2 4-2 4-1 0-1 1-1 1 0 1-1 2-1 2-1 0-1 2-2 3 0 1-1 4-2 5-5 6-12 17-12 18 0 1-2 4-4 7-3 3-7 9-10 14-3 5-7 9-8 10-1 1-2 3-2 4 0 1-3 6-6 10-4 5-8 12-10 15-2 3-5 6-5 6-1 0-1 1-1 2 0 2-1 4-3 6-2 2-6 8-10 14-3 5-7 10-9 11-1 1-2 3-2 4 0 2-11 19-13 20-1 1-10 14-10 16 0 0-3 5-7 10-3 5-8 12-10 15-2 2-4 5-5 5 0 1-1 2-1 3 0 2-6 11-16 24-3 4-5 8-6 10-1 3-2 4-6 9 0 0-4 6-8 12-4 6-8 11-9 11-1 1-2 2-2 4 0 1-2 4-4 7-2 3-4 7-5 9-1 2-2 3-3 3-1 0-9 11-10 14 0 3-4 8-5 9-1 0-2 2-3 4-1 2-2 4-3 4 0 0-3 4-5 8-3 4-6 8-7 8 0 1-1 2-1 3 0 2-2 4-12 18-2 2-4 7-6 9-2 3-4 5-4 5-1 0-1 0-1 1 1 1-1 4-4 8-2 3-11 16-11 17 0 1-5 8-7 8 0 0-1 1-1 2 0 2-8 15-12 20-3 3-7 10-11 16-1 3-5 9-8 13-3 4-6 8-6 8 0 2-7 11-7 10-1 0-1 1-2 5-1 2-2 3-2 4-2 1-5 6-14 20-2 2-4 6-6 9-5 9-19 29-22 33-2 1-3 3-3 4 0 2-9 16-12 19-1 1-3 4-5 7-2 3-4 5-4 5-1 0-1 0-1 1 0 2 0 4-5 10-2 4-7 10-9 14-2 3-6 8-7 9-2 2-3 4-3 4 0 2-8 14-12 21-2 2-5 6-7 10-6 9-15 23-17 25 0 1-1 1-1 2 0 0-2 3-4 6-3 3-5 6-4 6 0 1-3 5-6 9-8 11-13 19-13 20 0 0-1 2-2 3-2 2-3 4-3 4 0 0-2 4-4 7-3 4-6 9-9 13-2 4-5 8-7 10-1 2-3 4-3 4 1 2-7 13-11 18-3 4-11 17-12 20-1 1-2 2-2 2-1 0-1 1-1 1 0 1-2 3-3 5-2 3-5 7-6 9-2 2-5 7-7 9-4 4-4 5-4 7 0 1-3 5-6 10-4 5-9 12-11 16-3 4-6 7-6 7-1 0-1 0-1 1 1 0-1 4-4 8-2 4-5 9-6 10-1 2-3 5-4 7-5 5-8 10-8 11 0 2-7 11-10 15-1 1-5 7-9 13-3 6-8 12-9 15-2 2-5 7-7 10-2 4-4 7-5 7-1 0-6 9-7 10 0 2-6 12-8 14-2 2-13 20-17 27-2 4-5 7-5 8-1 1-3 3-4 5-1 2-3 5-4 6-4 5-5 6-5 7 0 1 0 1-1 1 0 0-1 1-1 3-1 1-2 4-4 7-2 2-7 9-11 15l-8 12 3 3c13 11 20 17 21 19 0 1 1 2 2 2 1 0 1 0 2 0 1 1 15 12 17 16 2 1 6 5 9 7 3 2 8 6 11 9l5 5 32 0c18 0 68 0 112 0 96 1 190 2 296 3 44 0 104 0 133 0 29 1 88 1 131 2 43 0 98 0 124 1 48 0 226 1 241 1 5 0 9 0 10 0 0-1 1-1 1 0 1 0 26 1 56 1 30 0 56 0 58 0 2 0 4 0 5 0 1 0 6 0 13 0 3 1 6 0 7 0 0-1 1-1 1 0 2 1 4 1 6 0 1-1 1-1 1 0 0 0 1 1 2 1 0 0 1-1 1-1 0-1 0-1 2 0 1 1 1 1 2 0 1-1 2-1 3 0 0 1 10 1 34 1 19 0 34 0 34 0 0 1 2 1 3 0 1-1 2-1 3 0 1 1 1 1 2 0 2-1 2-1 2 0 0 1 0 1 1 0 1-1 2-1 2 0 1 1 5 1 5 0 0-1 1-1 2 0 2 1 3 1 4 0 2-1 2-1 4 0 1 1 1 1 1 0 0-1 1-1 3-1 1 1 2 0 2-1 0 0 5-6 11-13 7-6 12-12 12-12 1-1 19-20 20-20 0 0 2-2 3-4 2-2 7-8 11-12 4-5 8-10 8-11 0-1 1-3 1-4 1 0 1-2 1-3 1-1 3-10 6-19 3-10 7-21 9-25 1-5 3-10 4-12 0-1 1-4 1-4 0-1 1-5 2-8 2-4 4-9 4-12 1-3 4-10 6-16 2-7 4-14 5-17 1-4 4-10 5-14 2-4 3-8 3-10 0-1 1-4 1-5 1-2 3-5 4-8 0-3 2-7 3-8 0-1 1-4 1-6 1-2 2-8 4-13 2-5 4-10 4-10 0-2 4-13 7-22 2-4 3-9 4-11 0-2 2-7 3-12 4-8 5-12 8-23 1-3 3-10 5-15 2-6 5-14 6-17 2-4 4-12 6-17 5-12 5-11 1-15-2-1-3-3-3-4 0-2-21-29-23-29 0 0-1-1-1-2-1-1-2-3-4-5-1-1-9-11-17-21-8-10-17-20-21-24-7-6-12-11-27-27-12-14-14-16-21-23-3-3-6-6-6-6 0 0-3-4-7-8-4-4-18-19-32-34-52-56-68-73-76-82-4-4-27-29-52-56-24-26-45-48-45-48-1 0-1 0-1-1 0-1-3-5-7-9-4-4-9-9-11-11-16-17-31-33-47-50-15-17-25-28-47-51-3-4-8-9-12-13-3-4-8-9-11-12-3-3-27-28-52-56-26-29-50-54-53-57-3-4-8-9-11-12-3-3-8-9-12-12-3-4-22-24-41-45-20-22-39-42-42-45-2-3-10-11-16-18-6-7-14-15-17-17-2-3-13-15-24-27-11-12-20-21-21-21-1 0-3 1-4 1M852 540c2 5 5 10 7 12 1 1 2 3 2 3 0 1 2 4 4 7 2 4 4 8 4 8-1 1 0 2 1 3 1 0 3 3 4 6 1 2 3 5 3 5 1 1 5 9 5 9 0 0 1 2 2 3 1 1 2 2 2 2 0 1 1 3 2 4 2 2 3 5 4 8 1 2 2 4 2 5 3 3 13 19 15 24 1 2 2 4 3 4 1 1 4 7 4 9 0 1 1 2 1 2 0 0 2 2 3 5 1 2 5 7 8 12 3 4 5 8 5 8 0 1 1 3 3 5 1 2 2 5 2 5 0 1 0 2 1 2 0 0 3 4 5 9 2 4 5 9 7 11 4 5 11 18 10 20 0 1 0 2 1 2 1 0 1 1 1 2 0 1 0 1 1 1 0-1 3 3 9 13 2 3 5 8 7 11 1 2 3 6 4 8 1 4 6 12 7 13 1 0 2 2 2 3 2 2 4 6 8 14 1 2 3 5 5 7 1 1 2 3 2 4 0 1 0 2 1 2 0 1 1 1 1 2 0 1 5 10 7 13 1 1 3 3 4 5 2 5 6 11 7 13 0 0 3 5 7 12 3 6 6 11 7 12 1 2 2 3 2 3 0 1 1 3 3 4 1 2 2 4 2 5 0 0 1 2 2 3 1 2 2 4 3 6 0 2 3 7 5 8 0 1 1 1 1 2 0 1 8 14 14 23 2 3 3 6 3 7 0 1 1 2 1 3 1 1 3 3 3 5 1 2 3 5 4 7 2 1 3 3 3 3 0 1 1 3 2 4 3 4 8 14 11 20 1 2 3 5 3 5 1 1 3 4 4 7 0 1 4 6 7 11 4 6 7 11 6 11 0 1 0 1-1 0 0 0-2-1-5 0-3 0-38 0-77 0-86 1-167 2-212 2-17 1-32 1-32 1 0 0 0-3 1-6 1-7 2-20 2-25 0-2 1-3 1-3 1 0 1-1 1-3 0-1 0-3 0-4 1-1 1-3 1-5 0-2 0-3 0-3 1 0 1-3 1-7-1-5 0-13 1-27 2-11 3-25 3-29 1-5 1-11 2-12 0-3 1-7 3-28 1-9 3-22 3-29 1-7 2-13 2-14-1 0 0-1 0-2 1 0 1-4 1-9 1-4 1-8 1-8 0 0 0-2 0-4 0-2 1-4 1-5 1 0 1-1 0-1 0-1 0-2 1-3 0-1 0-3 0-5 0-2 0-5 1-6 1 0 1-2 1-3-1-2-1-3 0-3 1 0 1 0 0-1-1 0-1-2 0-5 1-2 1-13 2-24 1-11 1-21 1-21 1 0 1-3 1-6 1-4 2-10 2-14 1-4 1-10 2-13 0-3 0-8 1-12 1-9 3-25 4-33 0-4 0-9 0-11 1-5 3-21 4-31 1-3 2-11 3-18 1-8 1-17 1-19 0-3 1-5 1-5 1 0 1-2 1-4 0-13 1-15 3-15 0 0 2 4 5 8M712 564c0 1-1 14-4 33 0 2 0 9 0 15-1 5-1 13-2 18-1 5-1 11-2 14 0 2-1 12-2 21-1 8-2 19-2 24-1 4-1 9-1 10-1 1-1 7-2 13-1 5-1 11-2 12 0 1-1 9-1 17-1 8-3 17-3 20-1 3-1 9-1 13-1 3-1 9-2 12-1 3-1 7 0 8 0 1 0 3-1 4-1 0-1 2-1 4 1 2 0 3 0 4-1 0-1 2-1 5 1 2 0 4 0 5-1 0-1 2-1 3 1 2 1 3 0 3-1 0-1 2 0 5 0 5-2 29-4 44 0 1 0 7-1 12-1 5-1 11-1 12-1 1-2 10-3 20-1 10-2 21-3 25-1 5-1 9-1 10 1 1 1 2 0 2 0 1-1 3-1 6 0 2 0 6 0 9-1 7-1 7-3 25-1 8-2 16-3 17 0 1 0 5-1 8 0 10-1 11-6 14-3 1-6 3-6 3 0 1-2 1-5 2-2 0-6 2-8 4-3 2-5 3-5 3-2 0-18 8-18 9 0 0-1 1-3 2-2 1-5 2-6 3-2 0-5 2-8 3-3 0-5 2-6 3-1 1-1 2-2 2 0 0-12 5-18 9-8 4-15 7-16 7 0 0-4 2-9 5-4 3-12 7-17 9-4 3-11 6-13 8-4 2-7 3-9 3-2 1-9 5-9 5 0 0-3 2-8 5-4 2-11 5-15 8-4 2-8 4-9 4-2 0-8 3-10 5-1 1-4 2-7 4-3 1-8 4-11 6-11 6-18 9-19 9 0-1-1 0-1 1-1 0-2 1-2 1-2 0-9 4-10 5-1 1-9 5-10 6-1 0-9 4-10 5 0 0-2 1-4 2-2 1-7 4-12 6-5 2-9 4-10 4-1 0-1 0-1 1 0 1-1 2-20 11-7 3-13 7-14 7-1 1-3 2-4 2-1 1-4 2-6 4-7 4-25 13-26 13-1 0-2 0-2 1-1 1-8 4-8 4-1 0-2 1-4 2-1 1-3 2-3 2-1 0-3 1-4 2-4 3-13 8-15 8-2 0 1-6 6-12 0-1 1-3 3-4 1-2 2-3 2-2 1 0 1 0 1-1 0-1 1-2 1-2 1 0 1-1 1-3 1-2 7-12 12-17 3-4 11-16 11-17 0-1 3-5 7-10 3-4 7-10 10-14 2-3 4-6 5-6 1 0 1-1 1-3 0-1 12-19 13-20 1 0 2-2 4-5 2-3 4-6 5-7 1-1 2-3 2-4 0-1 2-4 4-6 2-2 4-6 6-8 7-12 11-17 12-17 1 1 1 0 1-1 0-2 0-3 1-4 1 0 3-4 6-8 3-4 6-9 7-9 1-1 8-12 9-13 0-1 6-10 10-16 3-4 9-13 14-20 4-7 11-18 15-22 4-5 7-10 7-11 0-1 2-4 5-8 3-3 8-10 11-15 9-14 10-15 17-25 3-5 6-9 7-9 1 0 1 0 1-1 0-1 1-3 3-4 1-2 2-4 2-4-1-1 2-5 9-14 4-5 8-11 9-13 1-3 3-5 4-6 0-1 5-7 9-14 5-7 10-14 12-16 2-2 3-4 3-4 0-2 8-14 12-18 1-2 4-6 6-9 2-3 4-5 4-5 1 0 1 0 1-1 0-1 2-6 3-7 0 0 4-5 7-10 4-6 9-12 10-14 2-2 4-4 4-5 0-2 6-11 10-16 3-3 13-18 13-20 0 0 1-2 3-4 2-2 6-8 9-13 4-6 7-10 8-10 1 0 2-2 2-5 0-1 0-2 1-2 0 0 3-3 6-8 2-4 5-8 6-8 1-2 11-16 11-17 0-1 2-4 4-7 3-4 7-10 9-13 3-4 6-9 8-10 1-1 2-3 2-4 0-1 10-17 12-18 1-1 6-9 11-17 2-3 4-7 5-8 1-1 3-4 5-7 7-11 10-15 12-16 0-1 1-2 1-3 0-1 3-6 4-6 1 0 1 1 1 1M1016 593c4 4 21 23 30 32 3 3 9 10 14 15 5 5 10 11 13 13 4 5 17 19 44 49 10 10 20 21 23 24 2 3 8 9 12 14 8 9 15 16 23 23 10 11 29 32 65 71 37 40 42 46 52 56 10 10 28 30 59 64 17 18 33 36 37 40 4 4 7 7 7 8 0 1-9 1-22 1-13 0-23 0-24 0 0 1-1 1-1 0 0 0-6 0-13 0-7 0-28 0-47 0-21 0-35 1-35 1 0 1-3-2-5-6-2-4-5-9-7-11-1-1-2-3-2-4 0-2-8-16-10-18-1-1-2-2-2-2 0-1-2-5-5-9-3-5-5-8-5-8 1 0-1-4-4-8-2-4-4-8-4-9 0 0 0-1-1-1-1-1-11-17-11-17 0-1-1-3-3-5-1-2-2-4-2-4 1-1 0-3-1-4 0-1-1-2-1-2 0 1-1-1-3-3-1-3-3-6-4-7 0-1-2-4-4-6-1-3-3-6-4-7-1-2-4-7-5-11-1-2-6-9-11-18-2-3-5-8-6-10-2-3-3-5-4-7-1-1-2-3-3-4 0-2-1-4-2-5-1-1-2-3-2-3 0-1-2-5-5-9-8-12-17-28-16-29 0-1 0-1-1-1 0 0-3-4-5-8-3-5-7-12-10-16-3-5-5-9-5-11 0-1 0-2-1-2-1 0-1-1-1-1 0-1-1-2-2-3-2-2-2-2-8-13-2-4-4-8-5-9-2-2-4-6-8-14-1-4-4-8-6-10-3-4-6-10-7-11 0 0-1-3-3-6-2-3-5-8-6-11-2-3-4-8-6-10-2-3-3-6-4-7 0-1-1-2-2-3-1-1-2-3-3-5-1-1-3-5-4-7-2-3-3-6-3-7 0-1-1-2-1-2-1 0-3-2-4-5-1-3-4-7-6-10-2-3-3-5-3-6 0 0-1-1-1-2-2-2-7-11-7-12 0-1 3 2 7 8M1366 1141c0 0 2 0 5 0 14-1 65 0 65 1 0 0-1 2-1 3-1 1-2 3-2 4 0 1-1 5-2 8-2 4-4 11-6 17-1 5-4 14-6 19-2 6-4 11-4 12 0 1-1 5-3 9-2 4-3 8-4 10 0 2-2 7-4 13-2 5-4 12-4 14-2 6-2 6-5 0-1-2-4-7-6-10-3-4-6-9-7-11-1-2-3-6-4-8-1-2-2-3-1-3 0 0-1-2-2-3-2-2-3-4-3-5 0 0 0-1-1-1 0 0-2-3-4-6-2-4-5-9-6-11-2-3-5-7-6-10-1-2-3-7-5-10-2-2-4-5-4-5 0-1-9-16-12-20-4-7-4-7 10-7 7 0 13 0 13 0 1 0 8 0 9 0M1202 1145c1 2 2 4 4 6 2 3 10 17 10 19 0 1 1 3 2 4 2 1 4 6 7 10 2 3 6 10 9 15 3 4 5 8 5 9-1 1 5 12 7 13 0 0 2 3 4 7 2 4 6 9 8 13 2 3 4 6 4 7 0 0 1 3 3 5 1 2 2 4 2 5 0 0 1 1 1 2 2 2 9 13 9 14 0 0 1 1 2 3 1 1 4 7 7 12 4 8 8 15 17 30 3 4 5 8 5 10 0 1 1 3 2 3 0 1 1 2 1 2 0 1 1 2 3 4 1 1 2 3 2 3 0 1-23 1-61 1-34-1-97-1-139-2-43 0-99 0-124-1-25 0-93 0-151-1-58 0-106 0-106-1-1 0-1 0-1 1 0 0-1 1-3 1-2 0-3-1-3-1 0-1-1-1-1 0-2 1-5 1-5 0 0 0-1-1-3-1-1 0-2 1-2 1 0 0-2 1-3 1-2 0-4-1-4-1 0-1-22-1-49-1-27 0-49 0-50 0 0-1-1-1-1 0 0 0-1 1-2 1-1 0-2-1-2-1 0-1-1-1-1 0-2 1-2 1-2 0 0-1-1-1-2 0-1 0-2 0-4 0-1-1-2-1-2 0 0 1 0 1-1 0-1-1-2-1-3 0-1 1-1 1-1 0 0-1 0-1-2 0 0 1-1 1-1 0 0 0-1-1-2-1-1 0-2 1-2 1 0 1-1 1-1 0-2-1-11-1-11 0 0 1 0 1-1 0-2-1-13-1-46-1-25 0-45 0-45 0-2-1-4-1-4 0 0 1-1 1-1 0-1-1-2-1-2 0 0 1-4 1-6 0 0-1-1 0-1 0-1 1-1 1-2 0-1-1-1-1-2 0 0 1-1 1-2 0-1-1-3-1-4-1-3 2-4 2-4 1 0-1-18-1-55-1-50 1-59 0-53-2 1 0 4-2 6-3 3-2 5-3 6-3 0 0 4-2 9-5 9-5 18-9 19-8 1 0 1-1 1-1 0-1 3-3 5-4 1 0 17-8 18-9 1-1 5-3 9-5 4-3 8-5 9-5 0-1 1-1 2-1 1 1 2 0 4-1 2-2 5-3 7-4 4-3 14-8 18-10 7-5 15-8 16-7 1 0 3-1 4-2 1-2 4-3 5-3 1-1 2-2 2-2 0-1 0-1 1-1 1 0 4-2 8-4 17-10 21-12 22-11 1 0 2-1 4-2 2-1 3-2 4-2 1 0 1 0 1-1 0 0 1-1 3-2 2-2 4-2 4-2 0 0 3-2 7-4 12-7 21-11 22-11 0 1 1 0 2 0 0-1 1-1 1-1 0 1 2 0 4-2 4-3 9-6 20-12 4-2 8-4 11-6 2-1 4-2 6-2 1 0 2 0 2-1 0 0 2-1 4-2 2-1 6-3 9-5 2-2 8-5 12-7 3-2 8-4 9-5 1-1 3-2 3-2 2 0 19-9 21-11 2-1 4-2 7-3 4-2 4-2 12-7 2-1 6-3 7-3 2-1 5-2 8-4 5-3 5-3 7-2 1 2 4 2 51 2 28-1 76-1 107-1 31-1 76-1 101-1 24-1 76-1 117-2 40 0 73 0 73 0 0 0 11-1 24-1l24 0 1 3" fill-rule="evenodd"/></g><g id="layer-2-920020" data-layer-id="layer-2-920020" data-layer-label="Layer 2" data-layer-color="#920020" fill="#920020"><path d="M720 337c0 1-1 2-2 3 0 1-1 2 0 2 0 1 4-4 4-5 0-1 0-1-1-1-1 0-1 0-1 1M706 359c-1 1-2 2-2 2 1 0 0 1-1 2-1 1-2 3-2 3 0 2 7-6 7-8 0-3 0-2-2 1M699 368c0 1-1 2-1 3 0 1 1 1 2-1 1-2 1-4-1-2M695 375c-1 2-1 3 0 1 1-1 2-2 2-2 0-2-2-1-2 1M691 380c-2 4-1 5 1 1 1-2 2-3 1-3 0 0-1 1-2 2M687 386c-1 1-1 2 0 2 1 0 2-2 2-3-1 0-1 1-2 1M680 397c-1 2-4 5-5 7-2 3-3 5-4 5-1 1-1 2-1 3 0 2 2 0 7-7 2-4 5-8 6-9 2-4 1-3-3 1M659 429c-1 2-3 4-3 4-1 0-1 1-1 2 0 2 6-4 7-7 1-4-1-3-3 1M647 446c-2 3-3 5-3 6 1 0 5-6 7-10 3-3-1 0-4 4M635 463c-1 2-2 4-2 4-1 0-1 1-2 2 0 1-2 4-4 7-3 5-3 7 0 3 4-5 11-17 11-18 0-1-1 0-3 2M611 499c0 2-2 5-3 6-1 2-2 3-2 3 1 1 9-10 9-11 0-2-2-1-4 2M599 519c-1 1-2 2-2 3 1 0 2-1 3-2 0-2 1-3 1-4-1 0-2 1-2 3M595 524c-1 2-2 3-1 3 1 0 3-4 3-5-1 0-1 1-2 2M590 531c-1 1-4 7-4 8 1 0 2-2 4-4 2-4 2-6 0-4M583 543c-1 1-3 3-3 3-1 0-1 1-1 2 0 0 0 1-1 1-1 0-1 0-1 1 0 2 3 0 6-5 3-5 3-6 2-6 0 0-1 2-2 4M854 547c0 1 2 4 2 3 1 0 0-2 0-3-1-1-2-1-2 0M858 552c0 1 1 3 1 3 1 0 1 1 1 1-1 1 2 4 2 4 1-1-2-8-4-9-1-1-1-1 0 1M573 556c0 1-1 2 0 2 0 0 1-1 2-2 1-1 1-2 0-2 0 0-1 1-2 2M842 564c0 2 0 2 1 1 0-1 0-3 0-4-1-1-1 0-1 3M863 561c0 1 2 5 3 6 0 0 1 1 2 3 1 1 1 1 1 0 0-1-1-3-1-3-1-1-2-2-2-3 0-1-3-4-3-3M711 566c0 2 0 3 1 3 0 0 0-1 0-3 0-2 0-3-1-3 0 0 0 1 0 3M566 568c-1 1-2 3-4 5-1 1-2 3-2 4 0 1 1 0 2-1 1-1 2-3 2-3 1-1 4-6 4-6 0-2-2-1-2 1M708 568c-1 1-1 2-1 3 1 0 1-1 2-2 0-1 0-2 0-3-1 0-1 1-1 2M710 574c0 2 0 3 1 2 0-2 0-4 0-5-1-1-1 0-1 3M841 573c-1 4-1 13-1 12 1-1 2-15 2-15-1 0-1 1-1 3M701 578c-2 2-3 4-3 5 0 0 2-2 4-4 1-2 2-4 2-5 0 0-2 2-3 4M709 581c0 1 0 2 1 1 0-1 0-3 0-3-1-1-1 0-1 2M556 582c-3 4-3 5-2 5 1 0 5-7 5-8 0 0-2 1-3 3M695 587c-1 1-1 2 0 2 1 0 2-3 2-4-1 0-1 1-2 2M839 588c0 2 0 3 1 2 0-1 0-3 0-4-1-1-1 0-1 2M1009 585c0 2 9 16 10 16 0-1-2-6-3-6-1 0-1-1-1-1 0-1 0-2-1-2-1 0-1-1-1-1 0-2-4-7-4-6M880 591c0 0 0 1 1 2 1 1 1 1 1 0 0-1 0-2-1-2-1-1-1-1-1 0M688 596c-1 1-2 4-3 5-1 1-2 4-3 6-1 2-2 3-1 3 0 0 2-2 4-5 1-3 3-6 4-7 1-1 2-3 2-3 0-1-1 0-3 1M838 597c0 1 0 2 1 1 0-1 0-3 0-3-1-1-1 0-1 2M883 596c0 1 0 2 1 2 0 0 2 3 3 6 2 3 4 6 4 6 2 0 1-1-2-6-2-3-3-5-3-6 0 0-1-1-1-2-2-1-2-1-2 0M543 602c-3 4-2 6 0 2 1-2 2-3 2-4 0-1-1 0-2 2M837 607c-1 5-1 12-1 11 1-1 2-16 2-16-1 0-1 2-1 5M1023 608c1 2 2 4 2 4 0-1-2-7-3-7-1 0 0 2 1 3M538 609c-1 1-3 4-4 6-2 2-3 4-3 5 0 1 5-5 9-12 2-2 0-1-2 1M706 620c-1 5-1 10-1 11 0 1-1 3-1 3 0 0 0 2 0 4 0 2 1 3 1 2 0-1 1-7 2-14 1-15 1-15 0-15 0 0-1 4-1 9M677 615c-1 1-1 2-1 2 1 0 1 0 2-1 0-1 0-2 0-3-1 0-1 1-1 2M835 621c0 2 0 5 0 8 1 3 1 3 1-3 1-2 0-4 0-5l-1-3 0 3M672 621c-1 0-1 1-1 2 0 0 1-1 2-1 1-1 1-2 1-3 0 0-1 1-2 2M666 630c-3 3-5 7-5 7 1 0 4-3 4-4 0-1 0-1 1-1 1 0 6-8 5-8 0-1-3 2-5 6M900 625c0 3 2 5 3 5 0-1-3-7-4-7 0 0 0 1 1 2M1035 631c6 11 9 14 7 9 0-1-1-2-1-2 0 0-2-3-4-6-2-4-4-7-4-7-1 0 1 3 2 6M903 631c1 2 5 10 6 10 1 0-1-6-4-9-1-1-2-2-2-1M834 634c0 1 0 2 1 2 1 0 1-1 1-1 0-1 0-2-1-2-1-1-1 0-1 1M520 635c-1 2-2 3-2 3 0 1-1 3-2 4-2 2-3 4-3 5 0 1 1 0 2-1 1-1 2-3 2-4 2-1 6-7 6-8 0 0-2 0-3 1M702 645c0 4 0 12-1 20-1 4-2 11-2 18-1 3-1 6-2 6 0 1 0 1 1 1 1 0 1-1 4-25 3-24 3-23 2-24-1 0-2 2-2 4M657 644c-1 0-1 1-1 2 0 0 1-1 2-1 1-1 1-2 1-3 0 0-1 1-2 2M911 644c0 2 4 7 5 7 0-1-3-7-4-8-1 0-1 1-1 1M832 649c0 2 0 7 0 11-1 5-1 6 0 3 2-8 2-17 1-17-1 0-1 1-1 3M507 655c-2 3 0 4 1 0 1-2 2-3 1-3 0 0-1 1-2 3M646 659c-7 10-8 12-8 13 0 2 2-1 6-7 2-4 5-7 6-8 1 0 1-1 1-2 0-1-2 1-5 4M920 660c0 1 0 2 1 3 1 0 1-1 0-3-1-1-1-1-1 0M502 663c-1 2-1 3-1 3 1 0 2-1 3-3 2-4 0-4-2 0M830 668c0 4-1 8-1 11-1 2-1 3 0 3 1 1 3-14 2-15-1-1-1 0-1 1M924 667c0 1 2 4 2 3 1 0 0-2 0-3-1-1-2-1-2 0M498 669c0 0-1 2-2 3-1 1-2 2-1 2 1 1 4-4 4-5-1-1-1-1-1 0M927 671c-1 0 1 5 2 5 1 0 1 1 1 2 0 0 0 1 1 1 1 0 1 1 1 2 0 0 0 1 1 1 1 0 0-3-2-6-2-2-3-4-3-5 0-1-1-1-1 0M1059 672c0 1 3 5 3 3 0-1-1-2-1-3-1-1-2-1-2 0M1063 679c1 3 4 8 5 8 1 0-4-11-5-11-1 0 0 1 0 3M489 682c-1 2-3 4-3 4-1 0-1 1-1 2 0 2 3-2 6-7 3-5 1-4-2 1M934 684c0 1 0 2 1 2 1 0 1-1 0-3-1-1-1-1-1 1M828 688c-1 6-2 17-1 14 0-2 0-3 1-3 0 0 0-1 0-3 0-2 0-3 1-3 1 0 1 0 0-1-1-1-1-1 0-2 0 0 0-2 0-3 0-5-1-4-1 1M936 687c0 1 0 2 1 3 1 1 1 1 1 0 0-1 0-2-1-3-1-1-1-1-1 0M627 689c-2 2-8 10-10 14-2 4 1 2 3-2 1-2 3-4 4-5 1-1 2-3 1-3 0-1 0-1 1-1 1 0 1 0 1-1-1 0 0-1 1-2 1 0 1-1 1-1 0-1-1 0-2 1M480 695c0 1-1 2 0 2 0 0 1-1 2-2 0-2 1-3 0-3 0 0-1 1-2 3M697 698c-1 1-1 7 0 7 1-1 1-8 1-8-1 0-1 0-1 1M1078 704c1 3 4 9 5 7 0-1-5-9-6-9 0 0 0 1 1 2M472 708c-1 2-2 3-2 4 0 1 5-5 5-6 0-2-2-1-3 2M696 706c0 0-1 4-1 9 0 9 1 8 2-2 1-8 1-8-1-7M826 708c-1 2-3 23-3 29 0 4 0 4 1-1 2-13 2-15 3-22 0-8 0-10-1-6M467 714c-2 3-1 5 1 2 1-2 2-3 2-3 0-2-2-1-3 1M608 716c-2 3-3 5-2 5 0 0 2-2 4-6 3-5 1-3-2 1M951 713c0 2 5 11 6 11 1 0 1 1 1 1 0 1 1 2 2 3 0 1 1 1 1 1 0-1-1-2-5-10-2-4-5-7-5-6M1087 719c1 3 3 5 3 5 0-1-4-10-5-10-1 0 0 2 2 5M463 721c-1 2-2 3-2 4 1 0 2-1 3-3 1-2 2-3 2-4-1 0-2 1-3 3M602 726c-1 2-2 3-1 3 1 0 4-5 3-5 0-1-1 0-2 2M693 731c0 4 0 7 0 8 0 1 1-2 1-6 1-4 1-7 1-8-1 0-1 3-2 6M1091 727c0 0 1 2 2 4 2 3 3 2 1-2-1-3-3-4-3-2M594 737c-1 1-2 3-2 4 0 1 1 0 3-2 3-5 2-6-1-2M965 738c0 1 1 3 2 4 1 1 2 3 3 5 1 2 2 3 2 3 1 0-2-7-5-11-1-1-2-2-2-1M449 743c-2 3-4 5-4 5-1 0-1 1-2 3 0 1-1 2-1 2-1 0-1 1-1 2 0 0 0 1-1 1-1 0-1 0-1 1 0 2 3 0 6-6 6-9 8-13 7-13 0 0-2 2-3 5M692 743c0 3-1 9-2 14 0 3 0 5 0 6 1 1 1 1 1-1 0-2 0-4 1-5 0-5 1-17 1-17-1 0-1 1-1 3M1100 742c0 2 9 17 10 16 1 0-5-10-6-11-1 0-1-1-1-1 0-3-3-6-3-4M590 743c-2 3-2 4-1 4 1 0 3-4 3-5-1 0-1 1-2 1M974 753c0 1 0 2 1 3 1 0 1-1 0-3-1-1-1-1-1 0M821 758c0 1 0 3-1 4 0 1 0 1 1 0 1 0 1-2 1-3-1-1-1-2-1-1M578 761c-1 2-2 3-1 3 0 0 1-1 2-3 1-2 2-3 1-3 0 0-2 1-2 3M979 761c0 2 5 11 6 10 0-1-4-10-5-11-1 0-1 0-1 1M573 767c-3 3-4 6-2 6 1 0 5-7 5-8 0 0-2 1-3 2M689 769c0 3 0 4 1 3 0-2 0-4 0-6-1-1-1 0-1 3M1116 770c1 2 2 4 3 4 0-1-3-8-4-8-1 0 0 2 1 4M426 777c-2 3-3 5-3 6 1 0 7-8 7-10 0-2 0-1-4 4M1123 782c0 1 1 2 2 3 1 2 1 2 1 1 0-1-1-2-2-3-1-2-1-2-1-1M562 784c-3 4-4 7-3 7 1 0 5-8 5-9-1 0-1 1-2 2M992 784c0 1 1 3 2 4 1 1 2 3 2 4 0 0 0 1 1 1 1 0 0-3-3-7-1-2-2-3-2-2M1127 790c2 3 4 7 5 7 0-1-2-7-4-9-2-2-2-1-1 2M415 794c-2 2-3 5-3 5 0 1 1-1 3-3 2-3 3-5 3-6-1 0-2 2-3 4M998 794c0 2 3 8 4 8 1 0 0-1 0-3-2-4-4-7-4-5M553 797c-4 5-5 8-4 8 1 0 6-8 6-9 0 0-1 0-2 1M1132 797c0 1 4 8 5 8 0-1-3-7-4-7-1-1-1-1-1-1M409 802c0 3 0 3 2 1 0-2 1-3 0-3 0 0-1 1-2 2M1004 805c0 1 1 3 2 4 2 2 3 0 1-3-2-2-3-2-3-1M547 806c-1 0-1 1-1 2 0 1 0 1 1 0 1-2 1-4 0-2M405 809c-1 0-1 1 0 2 1 0 1-1 2-1 0-3 0-3-2-1M402 813c-2 3-1 5 1 2 1-2 2-3 2-3 0-2-2-1-3 1M684 814c0 1 0 2 1 2 0-1 1-2 0-3 0-2-1-1-1 1M1142 814c0 1 1 2 1 2 0 0 1-1 0-2 0-1-1-2-1-2 0 0-1 1 0 2M397 820c-1 1-2 4-2 5l-1 3 2-3c3-3 5-8 4-8 0 0-1 1-3 3M538 821c-1 1-1 2-1 2 1 0 1 0 2-1 0-1 0-2 0-3-1 0-1 1-1 2M813 830c-1 6-1 12-2 14 0 6-1 17-1 17 1 0 1-3 1-6 1-4 2-13 3-21 1-8 1-15 1-15 0 0-1 5-2 11M1146 823c0 0 1 2 2 3 2 3 3 2 1-2-1-2-3-3-3-1M1017 827c0 2 3 8 4 8 1 0 1 1 1 2 0 0 0 1 1 1 1 0 1 1 1 1 0 1 0 1 1 2 1 0 1 0 0-2-2-6-8-14-8-12M527 835c-2 3-4 6-3 6 0 0 1-1 2-2 1-1 2-2 2-3 2-2 5-6 5-7 0-2-2 0-6 6M1151 830c1 3 4 8 4 6 0-1-3-8-4-8-1 0-1 1 0 2M683 830c0 1-2 15-2 22-1 2-1 6-2 9 0 3 0 7-1 9-1 10-1 16 0 16 1 1 2-6 2-20 1-4 1-9 2-11 1-9 1-10 2-18 0-5 0-8 0-8-1 0-1 1-1 1M1155 838c0 1 2 3 3 3 0-1 0-2-1-3-1-1-2-1-2 0M381 846c-3 3-4 6-3 6 1 0 6-8 6-9 0 0-2 1-3 3M1028 846c0 2 4 7 4 6 0-1-3-7-4-7 0 0 0 1 0 1M1160 846c0 0 1 2 2 3 3 3 3 1 0-2-1-1-2-2-2-1M516 852c-1 1-1 1-1 2 1 1 2-1 2-2-1-1-1-1-1 0M376 854c-1 1-3 3-4 5-1 2-2 3-2 3-1 0-1 1-1 2 0 2 1 0 6-6 3-5 4-8 1-4M513 855c-2 2-1 3 1 2 1 0 1-1 1-2 0-1-1-1-2 0M507 864c-5 7-6 10-5 10 0 0 2-2 4-6 2-3 4-6 5-7 1-1 2-2 1-2 0-1-3 2-5 5M809 866l0 5 1-4c0-3 0-5 0-5-1-1-1 1-1 4M1170 863c0 1 2 5 7 13 2 2 3 4 3 5 0 0 1 1 2 2 2 2 1 0-3-7-2-4-4-8-4-8 0-1 0-1-1-1 0 0-1-1-2-3-1-1-2-2-2-1M367 867c0 1 0 2 0 2 1 0 1-1 1-2 1-1 0-2 0-2-1 0-1 1-1 2M808 872c0 1 0 4-1 5 0 1 0 6 0 11-1 4-1 9-1 11-1 2-1 6-2 10 0 3-1 8-1 12-1 8-1 15 0 9 1-5 1-6 4-27 2-20 3-32 1-33 0 0 0 1 0 2M1043 872c0 1 1 3 2 5 1 2 3 4 4 6 0 1 1 2 2 3 0 2 2 3 2 1 0 0-6-11-8-14-1-1-2-2-2-1M357 882c0 0-1 1-1 1 0 1-2 4-4 7-2 2-4 5-4 6 0 2 2-1 8-9 3-5 3-6 1-5M490 890c-1 1-2 3-2 3 1 0 5-4 5-5 0-2-1-1-3 2M677 890c0 2 0 3-1 3 0 0-1 1 0 2 0 1 0 4 0 5 0 4 1 1 2-6 0-4 0-7-1-7 0 0 0 1 0 3M1185 889c0 1 5 8 5 7 0-1-1-3-2-5-2-3-3-4-3-2M483 899c-2 2-3 5-3 5 1 1 7-6 7-8 0-2-1-1-4 3M1059 901c1 2 3 4 3 4 1 0 0-2-1-4-1-2-3-4-3-4-1 0 0 2 1 4M343 902c-2 3-1 4 1 1 1-2 1-3 1-3-1 0-1 1-2 2M675 904c0 1 0 3-1 5 0 4 0 10 0 11 0 0 1-4 1-9 1-4 1-8 1-9-1 0-1 1-1 2M1193 904c1 1 1 2 2 2 1-1-1-4-2-4-1 0-1 1 0 2M478 906c-1 4-1 5 1 3 1-1 1-3 1-4 0-1-1-1-2 1M1063 906c0 1 0 2 1 3 1 0 1-1 0-3-1-1-1-1-1 0M1195 907c0 0 1 2 3 4 1 2 2 4 2 5 0 1 6 9 7 9 0-1-1-2-2-4-1-1-2-3-1-3 0-1 0-1-1-1 0 0-2-2-4-5-2-5-4-7-4-5M334 916c-1 2-2 4-2 5 0 0 2-2 3-4 2-2 3-3 3-4-1 0-2 1-4 3M1067 913c0 1 7 14 8 15 0 0 1 1 1 2 1 1 1 1 1 0 0-1-2-5-3-8-4-6-7-10-7-9M467 923c-3 4-3 5-2 5 1 0 5-7 5-8-1 0-2 1-3 3M673 925c-1 2-1 8-1 12l-1 8 2-10c0-5 1-11 1-12 0-3-1-2-1 2M326 929c-1 2-2 4-2 4 0 1 2-1 3-3 2-3 3-5 2-5 0 0-2 2-3 4M462 931c-1 2-2 3-1 3 1 0 4-5 3-5 0-1-1 0-2 2M802 935c-1 1-2 17-1 16 0-1 0-3 1-6 0-3 0-7 0-8 1-3 1-4 0-2M319 940c-1 1-2 3-1 3 1 0 4-5 4-6 0-1-2 1-3 3M1214 938c0 2 5 11 6 11 0-1-4-10-5-11-1 0-1 0-1 0M453 944c-3 5-4 7-4 7 1 0 7-10 7-11-1 0-2 2-3 4M1086 947c2 4 4 6 4 5 0-2-4-9-5-9-1 0 0 2 1 4M670 949c0 2 0 4 1 4 0-1 0-8-1-9 0 0 0 2 0 5M1221 950c0 1 1 2 1 1 1 0 0-2-1-2-1 0-1 1 0 1M309 955c-1 1-2 3-2 3-3 2-7 11-5 10 1-1 10-15 10-16-1 0-2 1-3 3M1222 953c0 1 3 6 3 5 0-3-1-6-2-6-1 0-1 0-1 1M1092 956c0 1 2 5 4 8 1 3 3 5 3 6 0 1 0 1 1 1 2 0 1-1-4-9-4-8-6-10-4-6M1226 961c1 1 2 2 1 2 0 0 0 1 1 2 1 0 2 1 2 1 1 0-1-5-3-7-2-2-2-1-1 2M435 969c-3 4-5 9-4 9 1 0 1 0 1-1 0-1 1-2 2-3 2-3 5-8 4-8 0 0-2 2-3 3M667 976c0 3 1 2 1-1 1-1 0-2 0-2-1 0-1 1-1 3M1107 983c0 1 1 2 1 2 0 0 1-1 0-2 0-1-1-2-1-2 0 0-1 1 0 2M1239 982c0 2 6 11 7 10 0 0-1-1-2-3-1-2-2-3-2-4 0 0-1-1-2-2-1-2-1-2-1-1M287 989c-2 3-4 6-4 7 1 0 9-12 9-13 0-2-1-1-5 6M666 987c0 6 1 5 1-1 0-2 0-4 0-4-1 0-1 2-1 5M1111 990c0 0 1 2 2 3 3 3 3 1 0-2-1-1-2-2-2-1M420 991c0 1-1 3-2 4-1 1-1 2 0 2 1 0 4-6 4-7-1 0-1 0-2 1M665 997c0 2 0 3 1 2 0-2 0-4 0-5-1-1-1 0-1 3M795 999c0 4 0 8 0 8 0 1 1-2 1-7 1-9 1-10-1-1M1246 994c0 0 0 1 1 2 1 1 1 1 1 0 0-1 0-2-1-2-1-1-1-1-1 0M281 998c0 0 0 1 1 1 1-1 1-2 1-2 0-1 0-1-1-1-1 0-1 1-1 2M411 1004c-5 8-5 9-4 9 0 0 2-2 3-4 1-2 2-4 3-4 1 0 1-1 1-1 0-1 0-2 1-2 0 0 1-1 1-2 0-3 0-3-5 4M1117 999c-1 1 2 5 3 4 0-1 0-2-1-3-1-1-2-2-2-1M1251 1002c0 2 1 3 2 3 0-1-2-6-3-6-1 0 0 1 1 3M664 1005c0 2 0 2 1 1 0-1 0-3 0-4-1-1-1 0-1 3M274 1008c-1 2 0 2 2 0 1-1 1-2 0-2-1 0-1 1-2 2M663 1013c0 1 0 2 1 1 0-1 0-3 0-3-1-1-1 0-1 2M267 1019c-1 1-1 2-1 2 0 1-1 1-1 2-2 1-2 3-1 3 1 0 4-6 4-8-1-1-1-1-1 1M655 1030c-7 3-6 5 1 1 3-2 6-3 6-4 0-1-3 0-7 3M260 1029c0 0-1 2-2 3-1 1-2 2-1 2 1 1 2 0 4-5 1 0 1-1 0-1-1 0-1 0-1 1M391 1034c-6 8-10 17-5 10 2-1 3-3 2-3 0-1 0-1 1-1 1 0 1 0 1-1-1-1-1-1 0-1 1 0 5-7 5-8 0 0-2 2-4 4M646 1034c0 1 1 1 2 1 2 0 3-1 1-1-1-1-2 0-3 0M251 1043c-1 0-1 1-1 2 0 0 1-1 2-1 1-1 1-2 1-3 0 0-1 1-2 2M627 1044c0 1 0 1 1 1 0 0 1 0 2-1 0-1-1-1-1-1-1 0-2 0-2 1M622 1046c-2 1-3 2-3 2 0 1 5-1 6-2 2-1 0-1-3 0M607 1054c-2 1-6 3-7 4-2 1-2 1-1 1 3 0 15-7 14-7-1 0-4 0-6 2M244 1054c-1 1-1 2-2 3 0 1 0 1 1 0 1-1 2-3 2-4-1-1-1-1-1 1M370 1065c-5 7-6 10-5 10 0 0 2-2 4-5 1-3 3-5 3-5 1 0 1-1 1-1 0-1 0-2 1-2 0 0 1-1 1-1 2-4-1-2-5 4M238 1062c0 0 0 2-1 3 0 1 0 1 1 0 2-3 2-4 1-4-1 0-1 0-1 1M585 1065c-2 1-3 2-3 3 1 0 7-3 7-4 0-1 0-1-4 1M234 1070c-1 1-3 3-3 3-1 0-1 1-1 2 0 1 0 1 1 0 2-1 6-9 5-9 0 0-1 2-2 4M570 1073c-2 2-1 2 2 0 1 0 2-1 1-1-1 0-2 0-3 1M564 1076c-5 2-6 3-5 4 1 0 10-4 10-5 0 0-1 0-5 1M353 1089c-1 2-2 5-3 6-1 2-2 3-1 3 0 0 2-2 3-4 1-2 3-4 3-4 0 0 1-1 1-2 1-3 0-2-3 1M219 1091c-1 2-2 4-2 4-1 0-1 1-1 2 0 0 0 1-1 1-1 0-3 4-2 4 1 1 9-12 9-13 0-1-1 0-3 2M538 1090c0 1 0 1 1 1 0 0 1 0 2-1 0-1-1-1-1-1-1 0-2 0-2 1M530 1094c-3 2-6 4-5 4 1 0 13-7 12-7 0-1-3 1-7 3M346 1100c0 2-1 3 0 3 1 0 2-4 2-5 0 0-1 1-2 2M520 1099c0 0-1 1-2 2-4 1-8 4-6 4 1 0 3-1 3-1 1-1 3-2 3-2 2 0 4-3 3-3-1-1-1-1-1 0M210 1104c-1 2 1 2 2 1 1-1 1-2 0-2 0 0-1 0-2 1M341 1108c-2 2-3 4-3 5 1 0 2-1 3-3 1-1 2-3 2-3 1 0 1-1 1-2 0-1-2 0-3 3M496 1111c-1 1-3 2-3 2 0 0-1 1-2 2-2 0-2 1-1 1 1 0 9-4 9-5 0-1 0-1-3 0M334 1118c-2 3-1 3 1 1 1-2 2-3 1-3 0 0-1 1-2 2M485 1117c-3 0-2 2 0 1 2 0 3-1 2-1 0-1 0-1 0-1 0 0-1 0-2 1M472 1124c-3 1-6 3-6 3 0 1 8-2 11-4 3-3 2-2-5 1M198 1123c0 0 0 2-1 3 0 1 0 1 1 1 1-1 2-5 1-5-1 0-1 0-1 1M194 1129c-1 2-1 3 0 3 0 0 1-1 2-2 1-3 0-4-2-1M325 1131c0 1-1 2 0 2 0 0 1-1 2-2 0-2 1-3 0-3 0 0-1 1-2 3M322 1135c-1 1-1 3-1 3 1 1 2-1 2-3-1-1-1-1-1 0M449 1136c-2 1-4 2-4 2 0 1 2 0 4-1 7-3 7-4 0-1M186 1141c-1 2-1 3-1 3 2-1 6-7 4-7 0 0-2 2-3 4M317 1143c-2 2-3 4-3 5 1 0 7-8 7-9 0-2-1-1-4 4M1331 1141c0 2 6 11 7 11 0-1-5-11-6-11-1 0-1 0-1 0M436 1143c-1 1-1 1 0 1 1 0 2 0 3-1 0-1-1-1-3 0M432 1145c-2 0-3 1-3 2-1 0-2 1-3 1-2 0-6 3-4 3 2 0 8-3 8-4 0-1 1-1 2-1 1 0 2 0 3-1 0-1 0-1-3 0M182 1148c-1 1-2 3-2 3 1 0 5-4 5-5 0-2-1-1-3 2M1204 1150c0 2 3 7 4 7 0 0 1 1 1 1 0 2 7 14 7 12 0-2-8-17-10-19-1-1-2-1-2-1M687 1152c-3 1-9 4-9 5 1 0 10-4 11-5 1 0-1-1-2 0M1338 1153c0 1 3 6 3 5 0-3-1-6-2-6-1 0-1 0-1 1M309 1154c0 1-1 3-2 4-1 1-1 2 0 2 1 0 4-6 4-7-1 0-1 0-2 1M673 1159c-2 1-4 2-4 3 1 0 8-3 8-4 1-1 0-1-4 1M1342 1161c2 3 5 6 4 3-2-4-3-6-4-6-1 0 0 1 0 3M402 1160c0 1-1 1-1 1-1 0-2 0-2 1 0 1 1 1 4-1 4-1 4-2 1-2-1 0-2 1-2 1M393 1165c-5 3-4 4 1 1 3-2 5-3 4-3 0-1-2 0-5 2M664 1164c-2 2-1 3 1 1 1-1 2-2 3-2 1-1 1-1-1-1-1 0-3 1-3 2M168 1167c-1 3-2 5-2 6 0 1 3-3 6-8 2-4 0-2-4 2M302 1165c0 2-1 3 0 3 1 0 2-4 2-5 0 0-1 1-2 2M380 1172c-2 1-5 2-5 3-1 1 6-1 8-3 5-3 2-3-3 0M296 1174c-3 3-5 8-5 9 1 0 2-2 4-6 5-6 5-8 1-3M642 1175c-4 3-8 5-6 5 0 0 2-1 4-2 2-1 4-2 4-1 0 0 1-1 1-2 1-1 0-1-3 0M162 1177c-1 2-2 3-2 4 0 1 3-2 4-4 2-3 0-2-2 0M369 1177c-1 2 0 2 2 0 2-1 2-1 1-1-1 0-2 0-3 1M1220 1177c0 2 3 8 4 8 1 0 0-2-1-4-2-4-3-5-3-4M628 1183c-3 2-6 4-6 4 0 1-1 1-2 1-1 0-2 0-3 1 0 1 5 0 7-1 0-1 3-3 6-4 3-1 5-3 5-3 0-1-1-1-7 2M1355 1182c0 2 3 7 4 6 1 0 0-1 0-3-2-3-4-5-4-3M357 1183c0 1-1 2-3 2-1 1-2 1-2 2 0 0 2 0 4-1 2-1 4-2 4-3 0-1-2-1-3 0M347 1188c-2 2-1 3 2 2 2-1 3-2 2-2-1-1-3 0-4 0M339 1193c-4 2-6 4-5 4 1 0 12-6 11-6 0-1-3 1-6 2M1228 1192c0 1 0 2 1 3 1 0 1-1 1-1 0-1 0-2-1-2-1-1-1 0-1 0M1362 1194c0 2 1 3 2 3 0-1-2-6-3-6-1 0 0 1 1 3M151 1194c0 1-1 2-1 3 0 1 1 1 2-1 1-2 1-4-1-2M1231 1196c0 2 2 6 3 6 1 0 1 0 1 1-1 1 3 5 4 5 0-1-7-12-7-12-1 0-1 0-1 0M598 1199c-9 4-14 8-15 9 0 1 0 1 1 0 1 0 5-3 9-4 7-4 11-7 10-7-1 0-3 1-5 2M148 1200c-1 1-2 3-3 5-1 1-3 4-5 6-1 1-2 3-1 3 1 1 11-15 11-16 0 0-1 1-2 2M278 1199c-2 3-10 15-10 16 1 0 8-9 8-10 0 0 1-1 1-1 1 0 1 0 1-1-1 0 0-1 1-1 1-1 1-2 1-3 0-1-1-1-2 0M1367 1202c0 1 1 2 1 4 2 2 2 0 1-3-1-2-2-2-2-1M320 1203c-1 1-1 1 0 1 1 0 2 0 3-1 0-1-1-1-3 0M314 1206c-2 2-1 2 2 0 1 0 2-1 1-1-1 0-2 0-3 1M306 1210c-1 1-4 3-6 4-3 1-5 3-4 3 0 0 9-4 10-5 0 0 1-1 2-1 1 0 1-1 0-1 0-1-1 0-2 0M572 1213c-2 1-3 2-2 2 1 0 7-3 7-4 0 0-1 0-5 2M290 1218c-1 2-1 2 0 2 1 0 2-1 4-1 1-2 1-2 0-2-1 0-2 1-4 1M553 1222c-2 2-5 3-6 3-2 1-3 3-1 3 1 0 1 0 1-1 0-1 0-1 1 0 1 0 11-6 11-7 0 0-2 0-6 2M282 1223c-2 1-3 2-3 2 0 1 6-2 8-4 1-1-3 0-5 2M1246 1223c1 1 1 2 2 2 0-1-1-4-2-4-1 0-1 1 0 2M1381 1227c1 3 3 5 3 4 1 0 0-3-1-3 0 0-1-1-2-3-1-2-2-3-2-3-1 0 0 2 2 5M1250 1231c1 2 3 4 3 4 1 0 0-2-1-4-1-2-3-4-3-4-1 0 0 2 1 4M126 1232c-1 2-2 4-3 5-2 2-3 5-3 6 1 0 10-12 10-14 0-2-2-1-4 3M256 1233c-5 7-4 7 4 3 8-3 12-7 8-5-1 0-3 1-3 1-1 1-9 4-9 3 0-1 0-1 1-1 1 0 2-4 2-5-1 0-2 2-3 4M534 1233c-2 1-4 2-4 3 0 0 2 0 5-2 6-3 5-4-1-1M1386 1237c1 1 2 2 2 1 0-2-1-4-2-4-1 0-1 1 0 3M526 1237c-1 1-2 2-1 2 1 0 4-3 4-4 0 0-2 1-3 2M1256 1240c0 0 3 6 4 7 0 0 1 1 1 2 1 1 1 1 1 0 0-1-1-4-3-6-2-4-3-5-3-3M1388 1240c0 0 1 2 2 3 1 1 2 2 2 1 0 0-1-2-2-3-1-1-2-2-2-1M507 1247c-9 4-12 7-11 7 1 0 3-1 6-3 2-1 5-3 6-3 1 0 2 0 2-1 0-1 1-1 2-1 0 0 1 0 1-1 0-2-1-1-6 2M489 1257c-3 3-1 3 2 0 1-1 2-2 1-2 0 0-2 1-3 2M106 1263c-2 3-3 5-3 6 1 0 2-1 3-3 1-2 3-5 3-6 1-2 2-3 1-3 0 0-2 2-4 6M484 1260c-1 1 0 1 2 0 1-1 1-1 0-1-1 0-2 0-2 1M1270 1265c0 0 1 1 2 2 0 1 1 2 1 3 1 2 4 8 5 8 1 0-4-11-6-13-1-1-2-1-2 0M464 1269c-3 2-6 4-5 4 0 1 10-4 12-6 2-2-1-1-7 2M100 1271c-1 1-1 2 0 2 0 1 1 0 1-1 1-2 1-2-1-1M456 1274c-2 1-8 5-7 5 2 0 6-2 6-3 0-1 1-1 2-1 0 1 1 0 1-1 0 0 0-1 0-1 0 0-1 0-2 1M97 1277c-1 1-2 2-1 2 0 0 2-1 2-2 1-2 2-3 1-3 0 0-2 1-2 3M93 1281c0 1-1 2 0 2 0 1 0 1-1 1 0 0-1 1-1 2 0 0 0 1-1 1-1 0-1 0-1 1 0 2 2 0 5-4 2-4 2-6-1-3M1280 1281c0 1 1 3 2 4 3 3 3 1 0-2-1-3-2-3-2-2M438 1284c-2 1-2 1 0 1 1 0 2 0 2-1 0-1 0-1 0-1 0 0-1 1-2 1M432 1287c-1 1-2 2-1 2 0 0 2-1 3-2 3-3 1-3-2 0M1286 1292c0 1 3 6 4 6 0-1-3-7-4-7 0 0 0 0 0 1M414 1296c-7 3-9 5-7 5 1 0 4-2 7-3 3-2 6-4 7-4 0 0 1 0 1-1 0-2-1-1-8 3M78 1306c-4 6-5 8-3 6 1 0 8-11 8-12 0-1-2 1-5 6M396 1306c-2 0-3 1-3 1 1 1 7-1 7-2 0-1 0-1-4 1M1295 1307c0 2 5 11 6 11 1 0 1 1 1 1 0 1 1 3 3 5 1 2 2 3 2 2 0-1-1-2-1-3-1-1-2-2-2-2 0-1-2-4-4-8-4-5-5-7-5-6M375 1316c-3 2-6 3-6 4 1 0 14-6 14-7 0 0-2 0-8 3M363 1323c-2 0-3 1-3 2 0 1 6-2 7-3 0-1-1-1-4 1M57 1339c-2 3-3 5-3 6 1 0 2-2 4-5 2-4 3-6 3-7-1 0-2 2-4 6M346 1335c-1 1 0 1 0 1 1 0 2 0 2-1 0-1 0-1-1-1 0 0-1 0-1 1M351 1335c-1 1 0 1 0 1 1 0 2 0 2-1 0-1 0-1-1-1 0 0-1 0-1 1M355 1335c0 1 1 1 2 1 0 0 1 0 1-1 0-1-1-1-1-1-1 0-2 0-2 1M917 1339c9 0 25 0 34 0 10 0 2-1-17-1-19 0-27 1-17 1M972 1339c1 0 3 0 3 0 1-1 0-1-1-1-2 0-3 0-2 1M1036 1340c11 0 29 0 40 0 11 0 2-1-20-1-22 0-31 1-20 1M1100 1340c2 0 4 0 5 0 1-1 0-1-2-1-3 0-4 0-3 1M1108 1340c-1 0 0 1 2 1 1 0 2-1 1-1 0-1-1-1-1-1-1 0-2 0-2 1M1115 1340c-1 1 0 1 3 0 1-1 1-1-1-1-1 0-2 0-2 1M1131 1340c0 1 1 1 2 1 0 0 1 0 1-1 1 0 0-1-1-1-2 0-3 1-2 1M1136 1340c-1 1-1 1 1 1 3 0 4 0 2-1-1-1-2 0-3 0M1142 1340c-1 1-1 1 0 1 1 0 2 0 3-1 0-1-1-1-3 0M1156 1340c-1 1 17 1 40 1 22 0 39 0 37-1-9 0-75 0-77 0M1237 1341c-1 1 0 1 2 1 4-1 5-2 1-2-1 0-3 0-3 1M1244 1341c-1 0 0 1 2 1 2 0 3-1 2-1 0-1-1-1-2-1-1 0-2 0-2 1M1250 1341c1 1 3 1 4 0 1-1 1-1-2-1-3 0-3 0-2 1M1256 1341c-1 1 0 1 3 0 1-1 1-1-1-1-1 0-2 0-2 1M1260 1341c0 1 1 1 2 1 2 0 3-1 1-1-1-1-2 0-3 0M1266 1341c1 1 2 1 3 0 1 0 0-1-2-1-3 0-3 0-1 1M1272 1341c-2 1-2 1 0 1 1 0 2 0 3-1 0-1-1-1-3 0M1276 1341c-1 1 0 1 2 1 2 0 4 0 4-1 1-1-5-1-6 0M1287 1341c-3 0 3 1 12 1 9 0 17 0 17-1 0-1-24-1-29 0M52 1347c-1 2 0 2 1 0 1-1 1-2 0-2 0 0-1 1-1 2M47 1353c-2 3-3 6-2 6 1 0 4-6 4-7-1 0-1 1-2 1M34 1374c-1 1-2 3-3 4-1 1-2 3-2 3 1 1 7-7 7-8 0-2-2-1-2 1M27 1384c0 0 0 1 1 1 1-1 1-2 1-2 0-1 0-1-1-1-1 0-1 1-1 2M22 1391c-3 4-2 5 1 1 3-4 3-5 2-5 0 0-2 2-3 4M1478 1413c-10 12-10 14 0 3 5-5 9-10 9-10 0-1-4 3-9 7M20 1410c0 1 4 4 6 4 1 0-2-3-4-4-1-1-2-1-2 0M26 1414c0 1 7 8 10 10 3 2 2 0-2-4-5-4-8-6-8-6M43 1429c0 0 1 2 3 3 1 1 3 3 4 5 2 2 5 2 4 0-2-2-11-9-11-8M1458 1435c-3 4-6 7-5 7 1 0 12-12 12-13 0-1 0-1-7 6M54 1439c0 1 4 4 4 4 1 0 1-1 0-1 0-2-4-4-4-3M1449 1445c-1 1-2 2-1 2 1 0 4-4 4-5 0 0-2 1-3 3M70 1453c0 1 2 2 3 2 1 0 0-1-1-2-2-1-3-2-4-2 0 0 1 1 2 2M1442 1453c-1 0-1 1 0 1 0 0 1-1 2-1 1-1 1-2 0-2 0 0-1 1-2 2M74 1456c0 1 7 7 9 8 3 2 0-1-4-5-3-2-5-4-5-3M1438 1456c-1 1-1 2 0 2 1 0 2-2 2-3-1 0-1 1-2 1M1432 1462c-1 2-1 3 0 3 1 0 2-3 2-4 0 0-1 1-2 1M93 1465c-1 1 0 1 1 1 1 0 2 0 2-1 0-1-1-1-1-1-1 0-2 0-2 1M110 1465c0 1 0 1 1 1 0 0 1 0 2-1 0-1-1-1-1-1-1 0-2 0-2 1M115 1465c0 1 2 1 4 1 1 0 3 0 3-1 0-1-2-1-3-1-2 0-4 0-4 1M123 1465c0 1 1 1 1 1 1 0 2 0 3-1 0-1-1-1-2-1-1 0-2 0-2 1M134 1465c-1 1 1 1 6 1 5 0 8 0 8 0-1-1-12-2-14-1M162 1466c8 0 20 0 27 0 8 0 1-1-13-1-15 0-21 1-14 1M214 1466c2 0 6 0 8 0 3 0 1-1-4-1-5 0-7 1-4 1M204 1467c1 0 3 0 4 0 1-1 0-1-2-1-2 0-3 0-2 1M230 1467c2 0 6 0 8 0 2 0 0-1-4-1-5 0-7 1-4 1M248 1467c2 0 5 0 7 0 2 0 0-1-3-1-4 0-6 1-4 1M282 1467c12 0 32 0 44 0 12 0 2-1-22-1-24 0-34 1-22 1M352 1467c2 1 3 1 3 0-1-1-2-1-3-1-2 0-2 0 0 1M368 1467c-1 1-1 1 0 1 1 0 2 0 3-1 1-1 1-1 0-1-1 0-2 0-3 1M380 1467c0 1 1 1 2 1 1 0 1 0 0-1-2-1-3-1-2 0M389 1467c-1 1 0 1 3 1 3 0 3 0 2-1-3-1-3-1-5 0M397 1467c-1 1 11 1 34 1 20 0 40 0 46 0 6 0 11 0 11 0 1-1-18-1-43-1-24 0-44 0-45 0-1-1-2-1-3 0M489 1468c0 1 1 1 3 1 3-1 4-2 1-2-2 0-3 0-4 1M501 1468c0 1 1 1 3 1 3-1 4-2 1-2-2 0-3 0-4 1M508 1468c-1 1 0 1 1 1 1 0 2 0 2-1-1-1-2-1-2-1 0 0-1 0-1 1M512 1468c2 1 3 1 3 0-1-1-2-1-3-1-1 0-1 0 0 1M517 1468c-1 1 0 1 2 1 2 0 2 0 1-1-2-1-3-1-3 0M530 1468c0 1 1 1 3 1 1 0 2 0 2-1 1 0-1-1-2-1-2 0-4 1-3 1M540 1468c-2 0 11 1 31 1 19 0 41 0 48 0 8 0 15 0 15 0 2-1-88-2-94-1M636 1469c-1 1-1 1 0 1 1 0 2 0 3-1 0-1-1-1-3 0M643 1469c-1 0 1 1 3 1 2 0 4-1 3-1 0-1-1-1-3-1-2 0-3 0-3 1M652 1469c-1 1 0 1 2 1 2 0 4 0 4-1-1-1-5-1-6 0M659 1469c0 1 2 1 5 1 3 0 5 0 5-1-1-1-11-1-10 0M671 1469c-1 1 9 1 34 1 20 0 40 0 46 0 6 0 11 0 11 0 1-1-19-1-43-1-25 0-46 0-46-1-1 0-2 0-2 1M767 1469c0 1 3 2 4 1 1-1 1-1-1-1-2 0-3 0-3 0M784 1470c-1 1 0 1 2 1 2 0 2 0 1-1-2-1-3-1-3 0M798 1470c0 1 21 1 46 1 25 0 46 0 45 0 0-1-21-1-46-1-25 0-46 0-45 0M793 1471c1 0 3 0 3 0 1-1 0-1-1-1-2 0-3 0-2 1M891 1471c1 0 3 0 3 0 1-1 0-1-1-1-2 0-3 0-2 1M915 1471c1 1 1 1 2 0 1-1 1-1-1-1-2 0-2 0-1 1M925 1471c0 1 20 1 44 1 24 0 38-1 32-1-30 0-77 0-76 0M1168 1473c1 0 3 0 3 0 1-1 0-1-1-1-2 0-3 0-2 1" fill-rule="evenodd"/></g></svg>